<svg viewBox="0 0 1600 560" xmlns="http://www.w3.org/2000/svg" role="img" aria-label="Neuropulse architecture">
  <rect width="1600" height="560" fill="#fafafa"/>

  <!-- title -->
  <text x="800" y="64" font-size="14" font-family="'SF Mono', Menlo, monospace"
        fill="#6e7781" text-anchor="middle" letter-spacing="4">ARCHITECTURE</text>

  <!-- GPU group -->
  <g>
    <rect x="432" y="138" width="816" height="154" rx="6"
          fill="none" stroke="#1f2328" stroke-width="0.5" stroke-dasharray="3 4" opacity="0.55"/>
    <text x="446" y="156" font-size="10" font-family="'SF Mono', Menlo, monospace"
          fill="#6e7781" letter-spacing="2">WEBGPU · 11 WGSL KERNELS · 22 BUFFERS</text>
  </g>

  
    <g>
      <rect x="80" y="170" width="130" height="90" rx="3"
            fill="none" stroke="#1f2328" stroke-width="0.7" opacity="0.95"/>
      <text x="145" y="206" font-size="20" font-family="Georgia, serif"
            fill="#1f2328" text-anchor="middle">Prompt</text>
      <text x="145" y="232" font-size="11" font-family="'SF Mono', Menlo, monospace"
            fill="#6e7781" text-anchor="middle" letter-spacing="1">user input</text>
    </g>
    <g>
      <rect x="250" y="170" width="160" height="90" rx="3"
            fill="none" stroke="#1f2328" stroke-width="0.7" opacity="0.95"/>
      <text x="330" y="206" font-size="20" font-family="Georgia, serif"
            fill="#1f2328" text-anchor="middle">Tokenizer</text>
      <text x="330" y="232" font-size="11" font-family="'SF Mono', Menlo, monospace"
            fill="#6e7781" text-anchor="middle" letter-spacing="1">BPE · 32,064 vocab</text>
    </g>
    <g>
      <rect x="450" y="170" width="160" height="90" rx="3"
            fill="rgba(31,35,40,0.04)" stroke="#1f2328" stroke-width="0.7" opacity="0.95"/>
      <text x="530" y="206" font-size="20" font-family="Georgia, serif"
            fill="#1f2328" text-anchor="middle">Embedding</text>
      <text x="530" y="232" font-size="11" font-family="'SF Mono', Menlo, monospace"
            fill="#6e7781" text-anchor="middle" letter-spacing="1">lookup · f16</text>
    </g>
    <g>
      <rect x="650" y="170" width="190" height="90" rx="3"
            fill="rgba(31,35,40,0.04)" stroke="#1f2328" stroke-width="0.7" opacity="0.95"/>
      <text x="745" y="206" font-size="20" font-family="Georgia, serif"
            fill="#1f2328" text-anchor="middle">32× Block</text>
      <text x="745" y="232" font-size="11" font-family="'SF Mono', Menlo, monospace"
            fill="#6e7781" text-anchor="middle" letter-spacing="1">attn + FFN + RMSN</text>
    </g>
    <g>
      <rect x="880" y="170" width="160" height="90" rx="3"
            fill="rgba(31,35,40,0.04)" stroke="#1f2328" stroke-width="0.7" opacity="0.95"/>
      <text x="960" y="206" font-size="20" font-family="Georgia, serif"
            fill="#1f2328" text-anchor="middle">LM Head</text>
      <text x="960" y="232" font-size="11" font-family="'SF Mono', Menlo, monospace"
            fill="#6e7781" text-anchor="middle" letter-spacing="1">RMSN + int4·f32</text>
    </g>
    <g>
      <rect x="1080" y="170" width="150" height="90" rx="3"
            fill="rgba(31,35,40,0.04)" stroke="#1f2328" stroke-width="0.7" opacity="0.95"/>
      <text x="1155" y="206" font-size="20" font-family="Georgia, serif"
            fill="#1f2328" text-anchor="middle">Sampler</text>
      <text x="1155" y="232" font-size="11" font-family="'SF Mono', Menlo, monospace"
            fill="#6e7781" text-anchor="middle" letter-spacing="1">argmax · top-k</text>
    </g>
    <g>
      <rect x="1270" y="170" width="130" height="90" rx="3"
            fill="none" stroke="#1f2328" stroke-width="0.7" opacity="0.95"/>
      <text x="1335" y="206" font-size="20" font-family="Georgia, serif"
            fill="#1f2328" text-anchor="middle">Token</text>
      <text x="1335" y="232" font-size="11" font-family="'SF Mono', Menlo, monospace"
            fill="#6e7781" text-anchor="middle" letter-spacing="1">append · loop</text>
    </g>
  <line x1="210" y1="215" x2="243" y2="215" stroke="#1f2328" stroke-width="0.9" opacity="0.6" />
            <polygon points="242,211 249,215 242,219" fill="#1f2328" opacity="0.7"/><line x1="410" y1="215" x2="443" y2="215" stroke="#1f2328" stroke-width="0.9" opacity="0.6" />
            <polygon points="442,211 449,215 442,219" fill="#1f2328" opacity="0.7"/><line x1="610" y1="215" x2="643" y2="215" stroke="#1f2328" stroke-width="0.9" opacity="0.6" />
            <polygon points="642,211 649,215 642,219" fill="#1f2328" opacity="0.7"/><line x1="840" y1="215" x2="873" y2="215" stroke="#1f2328" stroke-width="0.9" opacity="0.6" />
            <polygon points="872,211 879,215 872,219" fill="#1f2328" opacity="0.7"/><line x1="1040" y1="215" x2="1073" y2="215" stroke="#1f2328" stroke-width="0.9" opacity="0.6" />
            <polygon points="1072,211 1079,215 1072,219" fill="#1f2328" opacity="0.7"/><line x1="1230" y1="215" x2="1263" y2="215" stroke="#1f2328" stroke-width="0.9" opacity="0.6" />
            <polygon points="1262,211 1269,215 1262,219" fill="#1f2328" opacity="0.7"/><path d="M 1335 260 L 1335 296 L 745 296 L 745 267"
                  stroke="#1f2328" stroke-width="0.9" fill="none" opacity="0.45" stroke-dasharray="3 4"/>
              <polygon points="741,267 745,259.5 749,267" fill="#1f2328" opacity="0.55"/><text x="1040" y="312" font-size="10" font-family="'SF Mono', Menlo, monospace"
                  fill="#6e7781" text-anchor="middle" letter-spacing="1.5">AUTO-REGRESSIVE LOOP</text>
  
    <rect x="540" y="370" width="220" height="80" rx="3" fill="none"
          stroke="#1f2328" stroke-width="0.7" stroke-dasharray="2 3" opacity="0.7"/>
    <text x="650" y="404" font-size="18" font-family="Georgia, serif"
          fill="#1f2328" text-anchor="middle">Activation readback</text>
    <text x="650" y="428" font-size="10" font-family="'SF Mono', Menlo, monospace"
          fill="#6e7781" text-anchor="middle" letter-spacing="1">shared GPU buffers</text>
    <rect x="820" y="370" width="220" height="80" rx="3" fill="none"
          stroke="#1f2328" stroke-width="0.7" stroke-dasharray="2 3" opacity="0.7"/>
    <text x="930" y="404" font-size="18" font-family="Georgia, serif"
          fill="#1f2328" text-anchor="middle">3D scene · Three.js</text>
    <text x="930" y="428" font-size="10" font-family="'SF Mono', Menlo, monospace"
          fill="#6e7781" text-anchor="middle" letter-spacing="1">strict 1:1 mapping</text>
    <rect x="1100" y="370" width="220" height="80" rx="3" fill="none"
          stroke="#1f2328" stroke-width="0.7" stroke-dasharray="2 3" opacity="0.7"/>
    <text x="1210" y="404" font-size="18" font-family="Georgia, serif"
          fill="#1f2328" text-anchor="middle">Audio sonification</text>
    <text x="1210" y="428" font-size="10" font-family="'SF Mono', Menlo, monospace"
          fill="#6e7781" text-anchor="middle" letter-spacing="1">live tensor → tone</text><path d="M 745 260 Q 745 340, 650 370"
                fill="none" stroke="#1f2328" stroke-width="0.9" opacity="0.7" stroke-dasharray="3 4"/><line x1="760" y1="410" x2="813" y2="410" stroke="#1f2328" stroke-width="0.9" opacity="0.6" stroke-dasharray="3 4"/>
            <polygon points="812,406 819,410 812,414" fill="#1f2328" opacity="0.7"/><line x1="1040" y1="410" x2="1093" y2="410" stroke="#1f2328" stroke-width="0.9" opacity="0.6" stroke-dasharray="3 4"/>
            <polygon points="1092,406 1099,410 1092,414" fill="#1f2328" opacity="0.7"/>

  <!-- branch labels -->
  <text x="800" y="320" font-size="10" font-family="'SF Mono', Menlo, monospace"
        fill="#6e7781" text-anchor="middle" letter-spacing="3">RENDER PATH (NO RE-COMPUTE — READS FROM THE SAME GPU BUFFERS)</text>
</svg>
