<svg viewBox="0 0 1600 520" xmlns="http://www.w3.org/2000/svg" role="img" aria-label="Comparison of LLM visualization tools across six dimensions">
  <rect width="1600" height="520" fill="#0a0a0a"/>

  <text x="800" y="56" font-size="14" font-family="'SF Mono', Menlo, monospace"
        fill="#9aa0a6" text-anchor="middle" letter-spacing="4">HOW IT COMPARES</text>
  <line x1="40" y1="80" x2="1560" y2="80" stroke="#ffffff" stroke-width="0.5" opacity="0.35"/>

  <text x="570" y="110" font-size="10" font-family="'SF Mono', Menlo, monospace"
                fill="#9aa0a6" text-anchor="middle" letter-spacing="2.5">REAL MODEL</text><text x="750" y="110" font-size="10" font-family="'SF Mono', Menlo, monospace"
                fill="#9aa0a6" text-anchor="middle" letter-spacing="2.5">SCALE</text><text x="930" y="110" font-size="10" font-family="'SF Mono', Menlo, monospace"
                fill="#9aa0a6" text-anchor="middle" letter-spacing="2.5">BROWSER</text><text x="1110" y="110" font-size="10" font-family="'SF Mono', Menlo, monospace"
                fill="#9aa0a6" text-anchor="middle" letter-spacing="2.5">3D</text><text x="1290" y="110" font-size="10" font-family="'SF Mono', Menlo, monospace"
                fill="#9aa0a6" text-anchor="middle" letter-spacing="2.5">LIVE TENSORS</text><text x="1470" y="110" font-size="10" font-family="'SF Mono', Menlo, monospace"
                fill="#9aa0a6" text-anchor="middle" letter-spacing="2.5">VALIDATED</text>
  <line x1="40" y1="126" x2="1560" y2="126" stroke="#ffffff" stroke-width="0.5" opacity="0.35"/>

  <text x="60" y="164" font-size="22" font-family="Georgia, serif" fill="#f5f5f5" >Brendan Bycroft's LLM Viz</text><text x="60" y="182" font-size="10" font-family="'SF Mono', Menlo, monospace" fill="#9aa0a6" letter-spacing="1">bbycroft.net/llm</text><text x="570" y="164" font-size="14" font-family="'SF Mono', Menlo, monospace" fill="#f5f5f5" text-anchor="middle">Toy</text><text x="750" y="164" font-size="14" font-family="'SF Mono', Menlo, monospace" fill="#f5f5f5" text-anchor="middle">~1K</text><circle cx="930" cy="158" r="6" fill="#f5f5f5"/><text x="930" y="180" font-size="11" font-family="'SF Mono', Menlo, monospace" fill="#9aa0a6" text-anchor="middle" letter-spacing="1">YES</text><circle cx="1110" cy="158" r="6" fill="#f5f5f5"/><text x="1110" y="180" font-size="11" font-family="'SF Mono', Menlo, monospace" fill="#9aa0a6" text-anchor="middle" letter-spacing="1">YES</text><circle cx="1290" cy="158" r="6" fill="#f5f5f5"/><text x="1290" y="180" font-size="11" font-family="'SF Mono', Menlo, monospace" fill="#9aa0a6" text-anchor="middle" letter-spacing="1">YES</text><circle cx="1470" cy="158" r="6" fill="none" stroke="#9aa0a6" stroke-width="1" opacity="0.5"/><line x1="40" y1="190" x2="1560" y2="190" stroke="#ffffff" stroke-width="0.3" opacity="0.2"/><rect x="40" y="190" width="1520" height="60" fill="rgba(255,255,255,0.025)" opacity="0.4"/><text x="60" y="224" font-size="22" font-family="Georgia, serif" fill="#f5f5f5" >Transformer Explainer</text><text x="60" y="242" font-size="10" font-family="'SF Mono', Menlo, monospace" fill="#9aa0a6" letter-spacing="1">poloclub.github.io</text><text x="570" y="224" font-size="14" font-family="'SF Mono', Menlo, monospace" fill="#f5f5f5" text-anchor="middle">GPT-2 small</text><text x="750" y="224" font-size="14" font-family="'SF Mono', Menlo, monospace" fill="#f5f5f5" text-anchor="middle">124M</text><circle cx="930" cy="218" r="6" fill="#f5f5f5"/><text x="930" y="240" font-size="11" font-family="'SF Mono', Menlo, monospace" fill="#9aa0a6" text-anchor="middle" letter-spacing="1">YES</text><circle cx="1110" cy="218" r="6" fill="none" stroke="#9aa0a6" stroke-width="1" opacity="0.5"/><circle cx="1290" cy="218" r="6" fill="none" stroke="#9aa0a6" stroke-width="1" opacity="0.6"/><path d="M 1284 218 A 6 6 0 0 1 1296 218 Z" fill="#9aa0a6" opacity="0.6"/><text x="1290" y="240" font-size="10" font-family="'SF Mono', Menlo, monospace" fill="#9aa0a6" text-anchor="middle" letter-spacing="1">PARTIAL</text><circle cx="1470" cy="218" r="6" fill="none" stroke="#9aa0a6" stroke-width="1" opacity="0.5"/><line x1="40" y1="250" x2="1560" y2="250" stroke="#ffffff" stroke-width="0.3" opacity="0.2"/><text x="60" y="284" font-size="22" font-family="Georgia, serif" fill="#f5f5f5" >BertViz</text><text x="60" y="302" font-size="10" font-family="'SF Mono', Menlo, monospace" fill="#9aa0a6" letter-spacing="1">jessevig/bertviz</text><text x="570" y="284" font-size="14" font-family="'SF Mono', Menlo, monospace" fill="#f5f5f5" text-anchor="middle">HF models</text><text x="750" y="284" font-size="14" font-family="'SF Mono', Menlo, monospace" fill="#f5f5f5" text-anchor="middle">Any</text><circle cx="930" cy="278" r="6" fill="none" stroke="#9aa0a6" stroke-width="1" opacity="0.5"/><circle cx="1110" cy="278" r="6" fill="none" stroke="#9aa0a6" stroke-width="1" opacity="0.5"/><circle cx="1290" cy="278" r="6" fill="none" stroke="#9aa0a6" stroke-width="1" opacity="0.6"/><path d="M 1284 278 A 6 6 0 0 1 1296 278 Z" fill="#9aa0a6" opacity="0.6"/><text x="1290" y="300" font-size="10" font-family="'SF Mono', Menlo, monospace" fill="#9aa0a6" text-anchor="middle" letter-spacing="1">ATTN ONLY</text><circle cx="1470" cy="278" r="6" fill="none" stroke="#9aa0a6" stroke-width="1" opacity="0.5"/><line x1="40" y1="310" x2="1560" y2="310" stroke="#ffffff" stroke-width="0.3" opacity="0.2"/><rect x="40" y="310" width="1520" height="60" fill="rgba(255,255,255,0.025)" opacity="0.4"/><text x="60" y="344" font-size="22" font-family="Georgia, serif" fill="#f5f5f5" >WebLLM</text><text x="60" y="362" font-size="10" font-family="'SF Mono', Menlo, monospace" fill="#9aa0a6" letter-spacing="1">webllm.mlc.ai</text><circle cx="570" cy="338" r="6" fill="#f5f5f5"/><text x="570" y="360" font-size="11" font-family="'SF Mono', Menlo, monospace" fill="#9aa0a6" text-anchor="middle" letter-spacing="1">YES</text><text x="750" y="344" font-size="14" font-family="'SF Mono', Menlo, monospace" fill="#f5f5f5" text-anchor="middle">Multi-B</text><circle cx="930" cy="338" r="6" fill="#f5f5f5"/><text x="930" y="360" font-size="11" font-family="'SF Mono', Menlo, monospace" fill="#9aa0a6" text-anchor="middle" letter-spacing="1">YES</text><circle cx="1110" cy="338" r="6" fill="none" stroke="#9aa0a6" stroke-width="1" opacity="0.6"/><path d="M 1104 338 A 6 6 0 0 1 1116 338 Z" fill="#9aa0a6" opacity="0.6"/><text x="1110" y="360" font-size="10" font-family="'SF Mono', Menlo, monospace" fill="#9aa0a6" text-anchor="middle" letter-spacing="1">—</text><circle cx="1290" cy="338" r="6" fill="none" stroke="#9aa0a6" stroke-width="1" opacity="0.6"/><path d="M 1284 338 A 6 6 0 0 1 1296 338 Z" fill="#9aa0a6" opacity="0.6"/><text x="1290" y="360" font-size="10" font-family="'SF Mono', Menlo, monospace" fill="#9aa0a6" text-anchor="middle" letter-spacing="1">—</text><circle cx="1470" cy="338" r="6" fill="none" stroke="#9aa0a6" stroke-width="1" opacity="0.6"/><path d="M 1464 338 A 6 6 0 0 1 1476 338 Z" fill="#9aa0a6" opacity="0.6"/><text x="1470" y="360" font-size="10" font-family="'SF Mono', Menlo, monospace" fill="#9aa0a6" text-anchor="middle" letter-spacing="1">—</text><line x1="40" y1="370" x2="1560" y2="370" stroke="#ffffff" stroke-width="0.3" opacity="0.2"/><rect x="40" y="370" width="1520" height="60" fill="rgba(255,255,255,0.08)" opacity="0.85"/><text x="60" y="404" font-size="22" font-family="Georgia, serif" fill="#f5f5f5" font-style="italic">Neuropulse</text><text x="60" y="422" font-size="10" font-family="'SF Mono', Menlo, monospace" fill="#9aa0a6" letter-spacing="1">this project</text><text x="570" y="404" font-size="14" font-family="'SF Mono', Menlo, monospace" fill="#f5f5f5" text-anchor="middle">Phi-3-mini</text><text x="750" y="404" font-size="14" font-family="'SF Mono', Menlo, monospace" fill="#f5f5f5" text-anchor="middle">3.8B</text><circle cx="930" cy="398" r="6" fill="#f5f5f5"/><text x="930" y="420" font-size="11" font-family="'SF Mono', Menlo, monospace" fill="#9aa0a6" text-anchor="middle" letter-spacing="1">YES</text><circle cx="1110" cy="398" r="6" fill="#f5f5f5"/><text x="1110" y="420" font-size="11" font-family="'SF Mono', Menlo, monospace" fill="#9aa0a6" text-anchor="middle" letter-spacing="1">YES</text><circle cx="1290" cy="398" r="6" fill="#f5f5f5"/><text x="1290" y="420" font-size="11" font-family="'SF Mono', Menlo, monospace" fill="#9aa0a6" text-anchor="middle" letter-spacing="1">ALL</text><circle cx="1470" cy="398" r="6" fill="#f5f5f5"/><text x="1470" y="420" font-size="11" font-family="'SF Mono', Menlo, monospace" fill="#9aa0a6" text-anchor="middle" letter-spacing="1">HF REF</text><line x1="40" y1="430" x2="1560" y2="430" stroke="#ffffff" stroke-width="0.3" opacity="0.2"/>

  <text x="60" y="466" font-size="11" font-family="'SF Mono', Menlo, monospace"
        fill="#9aa0a6" letter-spacing="1">● PRESENT      ◐ PARTIAL      ○ ABSENT</text>
</svg>
