<svg viewBox="0 0 1600 900" xmlns="http://www.w3.org/2000/svg" role="img" aria-label="Neuropulse app preview — a stylized snapshot of the live in-browser visualizer">
  <defs>
    <radialGradient id="vignette" cx="50%" cy="50%" r="55%">
      <stop offset="0%" stop-color="#050505" stop-opacity="0"/>
      <stop offset="100%" stop-color="#050505" stop-opacity="0.7"/>
    </radialGradient>
    <linearGradient id="glow" cx="50%" cy="50%">
      <stop offset="0%" stop-color="#ffffff" stop-opacity="0.16"/>
      <stop offset="100%" stop-color="#ffffff" stop-opacity="0"/>
    </linearGradient>
  </defs>

  <!-- outer frame -->
  <rect width="1600" height="900" fill="#0a0a0a"/>
  <rect x="8" y="8" width="1584" height="884" rx="8" fill="#0d0d0d" stroke="#ffffff" stroke-width="0.6" opacity="0.95"/>

  <!-- browser chrome -->
  <g>
    <circle cx="32" cy="36" r="6" fill="#ffffff" opacity="0.18"/>
    <circle cx="52" cy="36" r="6" fill="#ffffff" opacity="0.18"/>
    <circle cx="72" cy="36" r="6" fill="#ffffff" opacity="0.18"/>
    <rect x="120" y="22" width="1340" height="28" rx="14" fill="#ffffff" opacity="0.06"/>
    <text x="140" y="41" font-size="13" font-family="'SF Mono', Menlo, monospace" fill="#9aa0a6" opacity="0.7">neuropulse.live/app/</text>
    <text x="1480" y="41" font-size="11" font-family="'SF Mono', Menlo, monospace" fill="#9aa0a6" letter-spacing="1.5">WEBGPU · CHROME 124</text>
  </g>
  <line x1="8" y1="64" x2="1592" y2="64" stroke="#ffffff" stroke-width="0.4" opacity="0.25"/>

  <!-- canvas (the 3D scene) -->
  <rect x="20" y="76" width="1560" height="804" rx="4" fill="#050505"/>
  <rect x="20" y="76" width="1560" height="804" rx="4" fill="url(#glow)"/>

  <!-- scene contents: residual stream cluster center, head rays around it -->
  <line x1="800" y1="438" x2="895.4" y2="438.0" stroke="#ffffff" stroke-width="1.4" opacity="0.80"/><line x1="800" y1="438" x2="977.8" y2="457.5" stroke="#ffffff" stroke-width="1.4" opacity="0.63"/><line x1="800" y1="438" x2="938.6" y2="469.6" stroke="#f5f5f5" stroke-width="0.7" opacity="0.51"/><line x1="800" y1="438" x2="920.8" y2="482.4" stroke="#ffffff" stroke-width="1.4" opacity="0.62"/><line x1="800" y1="438" x2="894.0" y2="489.7" stroke="#f5f5f5" stroke-width="0.7" opacity="0.24"/><line x1="800" y1="438" x2="885.9" y2="508.7" stroke="#f5f5f5" stroke-width="0.7" opacity="0.17"/><line x1="800" y1="438" x2="869.1" y2="529.8" stroke="#ffffff" stroke-width="1.4" opacity="0.74"/><line x1="800" y1="438" x2="831.9" y2="526.2" stroke="#f5f5f5" stroke-width="0.7" opacity="0.23"/><line x1="800" y1="438" x2="800.0" y2="532.3" stroke="#ffffff" stroke-width="1.4" opacity="0.75"/><line x1="800" y1="438" x2="776.3" y2="503.6" stroke="#ffffff" stroke-width="1.4" opacity="0.70"/><line x1="800" y1="438" x2="726.1" y2="536.1" stroke="#ffffff" stroke-width="1.4" opacity="0.83"/><line x1="800" y1="438" x2="733.0" y2="493.2" stroke="#f5f5f5" stroke-width="0.7" opacity="0.40"/><line x1="800" y1="438" x2="709.4" y2="487.8" stroke="#ffffff" stroke-width="1.4" opacity="0.73"/><line x1="800" y1="438" x2="682.5" y2="481.2" stroke="#f5f5f5" stroke-width="0.7" opacity="0.18"/><line x1="800" y1="438" x2="650.4" y2="472.1" stroke="#ffffff" stroke-width="1.4" opacity="0.73"/><line x1="800" y1="438" x2="682.2" y2="450.9" stroke="#f5f5f5" stroke-width="0.7" opacity="0.37"/><line x1="800" y1="438" x2="631.4" y2="438.0" stroke="#ffffff" stroke-width="1.4" opacity="0.62"/><line x1="800" y1="438" x2="706.4" y2="427.8" stroke="#f5f5f5" stroke-width="1.4" opacity="0.60"/><line x1="800" y1="438" x2="672.7" y2="409.0" stroke="#f5f5f5" stroke-width="0.7" opacity="0.54"/><line x1="800" y1="438" x2="638.1" y2="378.5" stroke="#f5f5f5" stroke-width="0.7" opacity="0.27"/><line x1="800" y1="438" x2="742.6" y2="406.4" stroke="#f5f5f5" stroke-width="0.7" opacity="0.22"/><line x1="800" y1="438" x2="743.9" y2="391.8" stroke="#ffffff" stroke-width="1.4" opacity="0.78"/><line x1="800" y1="438" x2="746.5" y2="367.0" stroke="#ffffff" stroke-width="1.4" opacity="0.77"/><line x1="800" y1="438" x2="768.9" y2="352.1" stroke="#f5f5f5" stroke-width="0.7" opacity="0.54"/><line x1="800" y1="438" x2="800.0" y2="344.7" stroke="#ffffff" stroke-width="1.4" opacity="0.63"/><line x1="800" y1="438" x2="831.9" y2="349.7" stroke="#f5f5f5" stroke-width="0.7" opacity="0.26"/><line x1="800" y1="438" x2="849.5" y2="372.2" stroke="#f5f5f5" stroke-width="0.7" opacity="0.38"/><line x1="800" y1="438" x2="880.0" y2="372.2" stroke="#f5f5f5" stroke-width="0.7" opacity="0.32"/><line x1="800" y1="438" x2="931.9" y2="365.5" stroke="#f5f5f5" stroke-width="0.7" opacity="0.36"/><line x1="800" y1="438" x2="926.3" y2="391.6" stroke="#ffffff" stroke-width="1.4" opacity="0.69"/><line x1="800" y1="438" x2="969.8" y2="399.3" stroke="#ffffff" stroke-width="1.4" opacity="0.78"/><line x1="800" y1="438" x2="925.7" y2="424.2" stroke="#ffffff" stroke-width="1.4" opacity="0.61"/>
  <circle cx="890.1" cy="393.9" r="1.7" fill="#f5f5f5" opacity="0.73"/><circle cx="945.3" cy="517.6" r="1.7" fill="#f5f5f5" opacity="0.62"/><circle cx="812.0" cy="293.9" r="1.7" fill="#f5f5f5" opacity="0.59"/><circle cx="700.5" cy="572.3" r="1.7" fill="#f5f5f5" opacity="0.57"/><circle cx="758.7" cy="485.3" r="1.7" fill="#f5f5f5" opacity="0.78"/><circle cx="863.6" cy="369.4" r="1.7" fill="#f5f5f5" opacity="0.72"/><circle cx="763.7" cy="434.9" r="1.7" fill="#f5f5f5" opacity="0.84"/><circle cx="624.8" cy="475.9" r="1.7" fill="#f5f5f5" opacity="0.62"/><circle cx="670.6" cy="384.2" r="1.7" fill="#f5f5f5" opacity="0.67"/><circle cx="874.1" cy="310.0" r="1.7" fill="#f5f5f5" opacity="0.60"/><circle cx="846.4" cy="267.4" r="1" fill="#f5f5f5" opacity="0.53"/><circle cx="680.0" cy="634.1" r="1" fill="#f5f5f5" opacity="0.44"/><circle cx="654.4" cy="410.6" r="1.7" fill="#f5f5f5" opacity="0.67"/><circle cx="732.1" cy="367.4" r="1.7" fill="#f5f5f5" opacity="0.72"/><circle cx="736.3" cy="485.7" r="1.7" fill="#f5f5f5" opacity="0.76"/><circle cx="868.0" cy="449.8" r="1.7" fill="#f5f5f5" opacity="0.79"/><circle cx="568.5" cy="546.7" r="1" fill="#f5f5f5" opacity="0.48"/><circle cx="854.3" cy="460.8" r="1.7" fill="#f5f5f5" opacity="0.80"/><circle cx="746.0" cy="393.2" r="1.7" fill="#f5f5f5" opacity="0.77"/><circle cx="753.7" cy="471.6" r="1.7" fill="#f5f5f5" opacity="0.80"/><circle cx="820.5" cy="378.5" r="1.7" fill="#f5f5f5" opacity="0.77"/><circle cx="743.8" cy="363.7" r="1.7" fill="#f5f5f5" opacity="0.72"/><circle cx="937.1" cy="353.0" r="1.7" fill="#f5f5f5" opacity="0.62"/><circle cx="834.6" cy="382.2" r="1.7" fill="#f5f5f5" opacity="0.77"/><circle cx="690.2" cy="451.0" r="1.7" fill="#f5f5f5" opacity="0.73"/><circle cx="784.0" cy="501.7" r="1.7" fill="#f5f5f5" opacity="0.76"/><circle cx="590.6" cy="436.4" r="1.7" fill="#f5f5f5" opacity="0.58"/><circle cx="652.6" cy="539.1" r="1.7" fill="#f5f5f5" opacity="0.59"/><circle cx="901.9" cy="372.6" r="1.7" fill="#f5f5f5" opacity="0.69"/><circle cx="868.8" cy="538.8" r="1.7" fill="#f5f5f5" opacity="0.66"/><circle cx="779.4" cy="366.1" r="1.7" fill="#f5f5f5" opacity="0.74"/><circle cx="844.0" cy="445.0" r="1.7" fill="#f5f5f5" opacity="0.83"/><circle cx="841.9" cy="499.5" r="1.7" fill="#f5f5f5" opacity="0.75"/><circle cx="877.7" cy="331.0" r="1.7" fill="#f5f5f5" opacity="0.64"/><circle cx="957.9" cy="487.6" r="1.7" fill="#f5f5f5" opacity="0.64"/><circle cx="875.0" cy="348.1" r="1.7" fill="#f5f5f5" opacity="0.68"/><circle cx="920.0" cy="457.8" r="1.7" fill="#f5f5f5" opacity="0.71"/><circle cx="702.2" cy="614.6" r="1" fill="#f5f5f5" opacity="0.49"/><circle cx="771.7" cy="440.1" r="1.7" fill="#f5f5f5" opacity="0.86"/><circle cx="756.8" cy="370.8" r="1.7" fill="#f5f5f5" opacity="0.74"/><circle cx="916.6" cy="498.7" r="1.7" fill="#f5f5f5" opacity="0.68"/><circle cx="682.6" cy="461.6" r="1.7" fill="#f5f5f5" opacity="0.71"/><circle cx="812.4" cy="444.0" r="1.7" fill="#f5f5f5" opacity="0.88"/><circle cx="808.3" cy="391.5" r="1.7" fill="#f5f5f5" opacity="0.80"/><circle cx="896.6" cy="479.4" r="1.7" fill="#f5f5f5" opacity="0.73"/><circle cx="748.9" cy="407.5" r="1.7" fill="#f5f5f5" opacity="0.80"/><circle cx="728.0" cy="364.3" r="1.7" fill="#f5f5f5" opacity="0.71"/><circle cx="759.9" cy="335.5" r="1.7" fill="#f5f5f5" opacity="0.67"/><circle cx="688.3" cy="405.5" r="1.7" fill="#f5f5f5" opacity="0.72"/><circle cx="838.9" cy="453.8" r="1.7" fill="#f5f5f5" opacity="0.83"/><circle cx="703.2" cy="341.2" r="1.7" fill="#f5f5f5" opacity="0.65"/><circle cx="774.9" cy="529.0" r="1.7" fill="#f5f5f5" opacity="0.70"/><circle cx="656.0" cy="521.9" r="1.7" fill="#f5f5f5" opacity="0.62"/><circle cx="798.0" cy="506.0" r="1.7" fill="#f5f5f5" opacity="0.75"/><circle cx="1037.2" cy="564.6" r="1" fill="#f5f5f5" opacity="0.45"/><circle cx="825.8" cy="426.8" r="1.7" fill="#f5f5f5" opacity="0.85"/><circle cx="839.1" cy="397.5" r="1.7" fill="#f5f5f5" opacity="0.79"/><circle cx="702.5" cy="523.9" r="1.7" fill="#f5f5f5" opacity="0.66"/><circle cx="979.8" cy="422.6" r="1.7" fill="#f5f5f5" opacity="0.62"/><circle cx="822.2" cy="243.1" r="1" fill="#f5f5f5" opacity="0.48"/><circle cx="538.9" cy="605.9" r="1" fill="#f5f5f5" opacity="0.36"/><circle cx="901.1" cy="403.3" r="1.7" fill="#f5f5f5" opacity="0.73"/><circle cx="751.0" cy="495.4" r="1.7" fill="#f5f5f5" opacity="0.76"/><circle cx="571.0" cy="427.6" r="1" fill="#f5f5f5" opacity="0.55"/><circle cx="957.2" cy="508.6" r="1.7" fill="#f5f5f5" opacity="0.62"/><circle cx="986.1" cy="344.2" r="1.7" fill="#f5f5f5" opacity="0.55"/><circle cx="1000.4" cy="507.5" r="1.7" fill="#f5f5f5" opacity="0.56"/><circle cx="834.2" cy="356.4" r="1.7" fill="#f5f5f5" opacity="0.72"/><circle cx="826.3" cy="367.1" r="1.7" fill="#f5f5f5" opacity="0.74"/><circle cx="669.2" cy="503.8" r="1.7" fill="#f5f5f5" opacity="0.66"/><circle cx="759.8" cy="464.0" r="1.7" fill="#f5f5f5" opacity="0.82"/><circle cx="742.6" cy="504.7" r="1.7" fill="#f5f5f5" opacity="0.73"/><circle cx="911.8" cy="302.3" r="1.7" fill="#f5f5f5" opacity="0.56"/><circle cx="855.0" cy="525.0" r="1.7" fill="#f5f5f5" opacity="0.70"/><circle cx="915.5" cy="355.4" r="1.7" fill="#f5f5f5" opacity="0.65"/><circle cx="778.7" cy="388.8" r="1.7" fill="#f5f5f5" opacity="0.79"/><circle cx="724.1" cy="428.3" r="1.7" fill="#f5f5f5" opacity="0.78"/><circle cx="782.2" cy="291.4" r="1.7" fill="#f5f5f5" opacity="0.58"/><circle cx="747.5" cy="498.6" r="1.7" fill="#f5f5f5" opacity="0.75"/><circle cx="806.3" cy="249.3" r="1" fill="#f5f5f5" opacity="0.50"/><circle cx="795.6" cy="538.9" r="1.7" fill="#f5f5f5" opacity="0.68"/><circle cx="1018.1" cy="518.6" r="1" fill="#f5f5f5" opacity="0.52"/><circle cx="836.8" cy="507.3" r="1.7" fill="#f5f5f5" opacity="0.74"/><circle cx="812.0" cy="343.0" r="1.7" fill="#f5f5f5" opacity="0.70"/><circle cx="801.0" cy="550.5" r="1.7" fill="#f5f5f5" opacity="0.66"/><circle cx="819.5" cy="466.2" r="1.7" fill="#f5f5f5" opacity="0.83"/><circle cx="713.3" cy="394.3" r="1.7" fill="#f5f5f5" opacity="0.74"/><circle cx="818.0" cy="470.8" r="1.7" fill="#f5f5f5" opacity="0.82"/><circle cx="1011.2" cy="478.1" r="1.7" fill="#f5f5f5" opacity="0.57"/><circle cx="968.3" cy="513.0" r="1.7" fill="#f5f5f5" opacity="0.60"/><circle cx="802.9" cy="458.6" r="1.7" fill="#f5f5f5" opacity="0.86"/><circle cx="865.9" cy="481.5" r="1.7" fill="#f5f5f5" opacity="0.76"/><circle cx="690.0" cy="400.8" r="1.7" fill="#f5f5f5" opacity="0.71"/><circle cx="787.7" cy="401.3" r="1.7" fill="#f5f5f5" opacity="0.82"/><circle cx="798.7" cy="418.9" r="1.7" fill="#f5f5f5" opacity="0.86"/><circle cx="579.8" cy="592.9" r="1" fill="#f5f5f5" opacity="0.43"/><circle cx="1078.0" cy="386.5" r="1" fill="#f5f5f5" opacity="0.46"/><circle cx="805.8" cy="590.5" r="1.7" fill="#f5f5f5" opacity="0.57"/><circle cx="826.7" cy="407.7" r="1.7" fill="#f5f5f5" opacity="0.82"/><circle cx="767.5" cy="498.3" r="1.7" fill="#f5f5f5" opacity="0.76"/><circle cx="889.8" cy="422.3" r="1.7" fill="#f5f5f5" opacity="0.76"/><circle cx="766.2" cy="524.8" r="1.7" fill="#f5f5f5" opacity="0.71"/><circle cx="949.0" cy="508.1" r="1.7" fill="#f5f5f5" opacity="0.63"/><circle cx="807.0" cy="468.8" r="1.7" fill="#f5f5f5" opacity="0.83"/><circle cx="961.3" cy="493.2" r="1.7" fill="#f5f5f5" opacity="0.63"/><circle cx="646.4" cy="296.0" r="1" fill="#f5f5f5" opacity="0.52"/><circle cx="639.1" cy="565.8" r="1" fill="#f5f5f5" opacity="0.53"/><circle cx="661.9" cy="434.0" r="1.7" fill="#f5f5f5" opacity="0.69"/><circle cx="753.2" cy="541.2" r="1.7" fill="#f5f5f5" opacity="0.67"/><circle cx="780.2" cy="359.5" r="1.7" fill="#f5f5f5" opacity="0.73"/><circle cx="934.2" cy="394.8" r="1.7" fill="#f5f5f5" opacity="0.67"/><circle cx="715.5" cy="488.3" r="1.7" fill="#f5f5f5" opacity="0.73"/><circle cx="745.2" cy="399.8" r="1.7" fill="#f5f5f5" opacity="0.78"/><circle cx="744.4" cy="349.6" r="1.7" fill="#f5f5f5" opacity="0.69"/><circle cx="803.9" cy="631.5" r="1" fill="#f5f5f5" opacity="0.49"/><circle cx="776.5" cy="449.5" r="1.7" fill="#f5f5f5" opacity="0.86"/><circle cx="1113.9" cy="581.1" r="1" fill="#f5f5f5" opacity="0.33"/><circle cx="877.9" cy="642.7" r="1" fill="#f5f5f5" opacity="0.45"/><circle cx="682.0" cy="500.7" r="1.7" fill="#f5f5f5" opacity="0.67"/><circle cx="609.5" cy="447.6" r="1.7" fill="#f5f5f5" opacity="0.61"/><circle cx="755.1" cy="413.7" r="1.7" fill="#f5f5f5" opacity="0.81"/><circle cx="909.9" cy="406.0" r="1.7" fill="#f5f5f5" opacity="0.72"/><circle cx="827.3" cy="516.3" r="1.7" fill="#f5f5f5" opacity="0.73"/><circle cx="803.7" cy="412.7" r="1.7" fill="#f5f5f5" opacity="0.85"/><circle cx="742.0" cy="489.2" r="1.7" fill="#f5f5f5" opacity="0.76"/><circle cx="671.2" cy="378.9" r="1.7" fill="#f5f5f5" opacity="0.67"/><circle cx="923.1" cy="456.1" r="1.7" fill="#f5f5f5" opacity="0.71"/><circle cx="1012.6" cy="429.7" r="1.7" fill="#f5f5f5" opacity="0.57"/><circle cx="811.4" cy="436.0" r="1.7" fill="#f5f5f5" opacity="0.88"/><circle cx="770.0" cy="236.3" r="1" fill="#f5f5f5" opacity="0.47"/><circle cx="886.3" cy="550.8" r="1.7" fill="#f5f5f5" opacity="0.62"/><circle cx="740.7" cy="374.8" r="1.7" fill="#f5f5f5" opacity="0.74"/><circle cx="825.8" cy="498.0" r="1.7" fill="#f5f5f5" opacity="0.77"/><circle cx="820.2" cy="548.2" r="1.7" fill="#f5f5f5" opacity="0.66"/><circle cx="885.5" cy="441.1" r="1.7" fill="#f5f5f5" opacity="0.77"/><circle cx="856.4" cy="168.7" r="1" fill="#f5f5f5" opacity="0.32"/><circle cx="732.3" cy="437.7" r="1.7" fill="#f5f5f5" opacity="0.80"/><circle cx="734.1" cy="502.0" r="1.7" fill="#f5f5f5" opacity="0.73"/><circle cx="844.2" cy="272.4" r="1" fill="#f5f5f5" opacity="0.54"/><circle cx="781.9" cy="465.8" r="1.7" fill="#f5f5f5" opacity="0.83"/><circle cx="915.6" cy="447.3" r="1.7" fill="#f5f5f5" opacity="0.72"/><circle cx="664.9" cy="403.3" r="1.7" fill="#f5f5f5" opacity="0.68"/><circle cx="1140.6" cy="463.9" r="1" fill="#f5f5f5" opacity="0.38"/><circle cx="622.6" cy="632.2" r="1" fill="#f5f5f5" opacity="0.40"/><circle cx="647.7" cy="487.9" r="1.7" fill="#f5f5f5" opacity="0.64"/><circle cx="939.6" cy="389.2" r="1.7" fill="#f5f5f5" opacity="0.66"/><circle cx="683.6" cy="312.3" r="1.7" fill="#f5f5f5" opacity="0.58"/><circle cx="790.3" cy="268.3" r="1" fill="#f5f5f5" opacity="0.54"/><circle cx="693.1" cy="505.8" r="1.7" fill="#f5f5f5" opacity="0.68"/><circle cx="759.3" cy="535.6" r="1.7" fill="#f5f5f5" opacity="0.68"/><circle cx="910.8" cy="280.0" r="1" fill="#f5f5f5" opacity="0.52"/><circle cx="776.0" cy="344.7" r="1.7" fill="#f5f5f5" opacity="0.70"/><circle cx="622.0" cy="354.4" r="1.7" fill="#f5f5f5" opacity="0.57"/><circle cx="911.8" cy="441.1" r="1.7" fill="#f5f5f5" opacity="0.73"/><circle cx="793.2" cy="475.4" r="1.7" fill="#f5f5f5" opacity="0.82"/><circle cx="875.6" cy="387.2" r="1.7" fill="#f5f5f5" opacity="0.74"/><circle cx="588.9" cy="289.7" r="1" fill="#f5f5f5" opacity="0.45"/><circle cx="771.5" cy="460.6" r="1.7" fill="#f5f5f5" opacity="0.83"/><circle cx="607.9" cy="445.7" r="1.7" fill="#f5f5f5" opacity="0.61"/><circle cx="906.8" cy="442.6" r="1.7" fill="#f5f5f5" opacity="0.74"/><circle cx="781.6" cy="458.1" r="1.7" fill="#f5f5f5" opacity="0.85"/><circle cx="811.5" cy="304.7" r="1.7" fill="#f5f5f5" opacity="0.61"/><circle cx="727.4" cy="438.8" r="1.7" fill="#f5f5f5" opacity="0.79"/><circle cx="622.6" cy="413.5" r="1.7" fill="#f5f5f5" opacity="0.62"/><circle cx="1068.3" cy="461.2" r="1" fill="#f5f5f5" opacity="0.49"/><circle cx="745.8" cy="459.1" r="1.7" fill="#f5f5f5" opacity="0.81"/><circle cx="782.9" cy="565.6" r="1.7" fill="#f5f5f5" opacity="0.63"/><circle cx="773.8" cy="423.9" r="1.7" fill="#f5f5f5" opacity="0.85"/><circle cx="981.4" cy="548.0" r="1" fill="#f5f5f5" opacity="0.54"/><circle cx="931.3" cy="349.5" r="1.7" fill="#f5f5f5" opacity="0.62"/><circle cx="903.0" cy="327.7" r="1.7" fill="#f5f5f5" opacity="0.62"/><circle cx="836.2" cy="420.5" r="1.7" fill="#f5f5f5" opacity="0.83"/><circle cx="769.6" cy="359.8" r="1.7" fill="#f5f5f5" opacity="0.73"/><circle cx="945.2" cy="491.1" r="1.7" fill="#f5f5f5" opacity="0.65"/><circle cx="877.0" cy="499.6" r="1.7" fill="#f5f5f5" opacity="0.72"/><circle cx="903.2" cy="478.9" r="1.7" fill="#f5f5f5" opacity="0.72"/><circle cx="716.3" cy="373.5" r="1.7" fill="#f5f5f5" opacity="0.71"/><circle cx="892.2" cy="509.1" r="1.7" fill="#f5f5f5" opacity="0.69"/><circle cx="737.5" cy="514.7" r="1.7" fill="#f5f5f5" opacity="0.71"/><circle cx="916.0" cy="314.7" r="1.7" fill="#f5f5f5" opacity="0.58"/><circle cx="804.4" cy="462.7" r="1.7" fill="#f5f5f5" opacity="0.85"/><circle cx="819.7" cy="394.8" r="1.7" fill="#f5f5f5" opacity="0.80"/><circle cx="911.8" cy="462.9" r="1.7" fill="#f5f5f5" opacity="0.72"/><circle cx="816.7" cy="304.4" r="1.7" fill="#f5f5f5" opacity="0.61"/><circle cx="829.0" cy="388.1" r="1.7" fill="#f5f5f5" opacity="0.78"/><circle cx="581.1" cy="357.0" r="1" fill="#f5f5f5" opacity="0.52"/><circle cx="868.6" cy="459.9" r="1.7" fill="#f5f5f5" opacity="0.78"/><circle cx="775.2" cy="377.3" r="1.7" fill="#f5f5f5" opacity="0.76"/><circle cx="820.7" cy="231.5" r="1" fill="#f5f5f5" opacity="0.46"/><circle cx="746.2" cy="445.0" r="1.7" fill="#f5f5f5" opacity="0.82"/><circle cx="923.1" cy="215.4" r="1" fill="#f5f5f5" opacity="0.39"/><circle cx="881.8" cy="413.8" r="1.7" fill="#f5f5f5" opacity="0.76"/><circle cx="775.7" cy="481.0" r="1.7" fill="#f5f5f5" opacity="0.80"/><circle cx="759.4" cy="445.2" r="1.7" fill="#f5f5f5" opacity="0.84"/><circle cx="683.1" cy="472.5" r="1.7" fill="#f5f5f5" opacity="0.71"/><circle cx="1067.8" cy="331.6" r="1" fill="#f5f5f5" opacity="0.43"/><circle cx="866.7" cy="435.7" r="1.7" fill="#f5f5f5" opacity="0.80"/><circle cx="735.7" cy="406.7" r="1.7" fill="#f5f5f5" opacity="0.78"/><circle cx="739.3" cy="392.2" r="1.7" fill="#f5f5f5" opacity="0.76"/><circle cx="777.7" cy="253.2" r="1" fill="#f5f5f5" opacity="0.50"/><circle cx="797.0" cy="384.2" r="1.7" fill="#f5f5f5" opacity="0.78"/><circle cx="826.0" cy="318.5" r="1.7" fill="#f5f5f5" opacity="0.64"/><circle cx="822.7" cy="440.7" r="1.7" fill="#f5f5f5" opacity="0.86"/><circle cx="809.7" cy="470.0" r="1.7" fill="#f5f5f5" opacity="0.83"/><circle cx="716.0" cy="291.2" r="1.7" fill="#f5f5f5" opacity="0.56"/><circle cx="820.8" cy="480.6" r="1.7" fill="#f5f5f5" opacity="0.80"/><circle cx="718.7" cy="522.5" r="1.7" fill="#f5f5f5" opacity="0.68"/><circle cx="762.0" cy="347.0" r="1.7" fill="#f5f5f5" opacity="0.70"/><circle cx="564.3" cy="346.2" r="1" fill="#f5f5f5" opacity="0.49"/><circle cx="721.4" cy="450.1" r="1.7" fill="#f5f5f5" opacity="0.78"/><circle cx="848.2" cy="488.5" r="1.7" fill="#f5f5f5" opacity="0.77"/><circle cx="758.6" cy="436.4" r="1.7" fill="#f5f5f5" opacity="0.84"/><circle cx="976.1" cy="359.2" r="1.7" fill="#f5f5f5" opacity="0.58"/><circle cx="656.2" cy="542.0" r="1.7" fill="#f5f5f5" opacity="0.59"/><circle cx="767.4" cy="489.6" r="1.7" fill="#f5f5f5" opacity="0.78"/><circle cx="1075.2" cy="454.1" r="1" fill="#f5f5f5" opacity="0.48"/><circle cx="730.7" cy="300.1" r="1.7" fill="#f5f5f5" opacity="0.59"/><circle cx="786.6" cy="453.3" r="1.7" fill="#f5f5f5" opacity="0.86"/><circle cx="880.4" cy="483.0" r="1.7" fill="#f5f5f5" opacity="0.74"/><circle cx="557.5" cy="492.5" r="1" fill="#f5f5f5" opacity="0.51"/><circle cx="862.8" cy="408.5" r="1.7" fill="#f5f5f5" opacity="0.78"/><circle cx="644.5" cy="422.1" r="1.7" fill="#f5f5f5" opacity="0.66"/><circle cx="1012.7" cy="415.3" r="1.7" fill="#f5f5f5" opacity="0.57"/><circle cx="732.4" cy="500.2" r="1.7" fill="#f5f5f5" opacity="0.73"/><circle cx="697.5" cy="387.0" r="1.7" fill="#f5f5f5" opacity="0.71"/><circle cx="741.9" cy="406.6" r="1.7" fill="#f5f5f5" opacity="0.79"/><circle cx="878.8" cy="443.6" r="1.7" fill="#f5f5f5" opacity="0.78"/><circle cx="726.8" cy="353.4" r="1.7" fill="#f5f5f5" opacity="0.69"/><circle cx="712.4" cy="332.2" r="1.7" fill="#f5f5f5" opacity="0.64"/><circle cx="820.0" cy="520.6" r="1.7" fill="#f5f5f5" opacity="0.72"/><circle cx="926.6" cy="468.0" r="1.7" fill="#f5f5f5" opacity="0.70"/><circle cx="530.8" cy="443.5" r="1" fill="#f5f5f5" opacity="0.49"/><circle cx="742.7" cy="542.7" r="1.7" fill="#f5f5f5" opacity="0.66"/><circle cx="813.3" cy="444.7" r="1.7" fill="#f5f5f5" opacity="0.88"/><circle cx="646.7" cy="491.5" r="1.7" fill="#f5f5f5" opacity="0.64"/><circle cx="697.9" cy="378.5" r="1.7" fill="#f5f5f5" opacity="0.70"/><circle cx="934.9" cy="546.8" r="1.7" fill="#f5f5f5" opacity="0.59"/><circle cx="838.5" cy="343.8" r="1.7" fill="#f5f5f5" opacity="0.69"/><circle cx="628.8" cy="473.8" r="1.7" fill="#f5f5f5" opacity="0.63"/><circle cx="673.2" cy="440.3" r="1.7" fill="#f5f5f5" opacity="0.71"/><circle cx="855.4" cy="419.7" r="1.7" fill="#f5f5f5" opacity="0.81"/><circle cx="909.6" cy="605.0" r="1" fill="#f5f5f5" opacity="0.50"/><circle cx="625.4" cy="426.5" r="1.7" fill="#f5f5f5" opacity="0.63"/><circle cx="839.4" cy="488.4" r="1.7" fill="#f5f5f5" opacity="0.78"/><circle cx="958.2" cy="542.3" r="1.7" fill="#f5f5f5" opacity="0.57"/><circle cx="738.1" cy="431.3" r="1.7" fill="#f5f5f5" opacity="0.80"/><circle cx="866.6" cy="365.1" r="1.7" fill="#f5f5f5" opacity="0.71"/><circle cx="767.6" cy="420.4" r="1.7" fill="#f5f5f5" opacity="0.84"/><circle cx="885.6" cy="361.8" r="1.7" fill="#f5f5f5" opacity="0.69"/><circle cx="774.8" cy="522.1" r="1.7" fill="#f5f5f5" opacity="0.72"/><circle cx="899.7" cy="423.4" r="1.7" fill="#f5f5f5" opacity="0.74"/><circle cx="870.7" cy="367.1" r="1.7" fill="#f5f5f5" opacity="0.71"/><circle cx="907.2" cy="292.2" r="1" fill="#f5f5f5" opacity="0.55"/><circle cx="715.8" cy="420.5" r="1.7" fill="#f5f5f5" opacity="0.77"/><circle cx="873.9" cy="342.2" r="1.7" fill="#f5f5f5" opacity="0.67"/><circle cx="841.9" cy="355.6" r="1.7" fill="#f5f5f5" opacity="0.71"/><circle cx="730.8" cy="349.7" r="1.7" fill="#f5f5f5" opacity="0.68"/><circle cx="908.3" cy="526.7" r="1.7" fill="#f5f5f5" opacity="0.65"/><circle cx="608.5" cy="391.0" r="1.7" fill="#f5f5f5" opacity="0.59"/><circle cx="701.0" cy="305.4" r="1.7" fill="#f5f5f5" opacity="0.58"/><circle cx="871.5" cy="474.6" r="1.7" fill="#f5f5f5" opacity="0.77"/><circle cx="673.8" cy="502.1" r="1.7" fill="#f5f5f5" opacity="0.66"/><circle cx="950.9" cy="346.9" r="1.7" fill="#f5f5f5" opacity="0.60"/><circle cx="849.4" cy="450.2" r="1.7" fill="#f5f5f5" opacity="0.82"/><circle cx="745.0" cy="346.1" r="1.7" fill="#f5f5f5" opacity="0.69"/><circle cx="776.5" cy="414.6" r="1.7" fill="#f5f5f5" opacity="0.84"/><circle cx="690.0" cy="579.1" r="1.7" fill="#f5f5f5" opacity="0.55"/><circle cx="793.9" cy="378.7" r="1.7" fill="#f5f5f5" opacity="0.77"/><circle cx="770.0" cy="515.4" r="1.7" fill="#f5f5f5" opacity="0.73"/><circle cx="793.0" cy="486.6" r="1.7" fill="#f5f5f5" opacity="0.80"/><circle cx="891.3" cy="386.0" r="1.7" fill="#f5f5f5" opacity="0.72"/><circle cx="865.6" cy="500.8" r="1.7" fill="#f5f5f5" opacity="0.73"/><circle cx="864.7" cy="559.9" r="1.7" fill="#f5f5f5" opacity="0.62"/><circle cx="624.1" cy="451.8" r="1.7" fill="#f5f5f5" opacity="0.63"/><circle cx="630.7" cy="399.1" r="1.7" fill="#f5f5f5" opacity="0.63"/><circle cx="738.9" cy="454.5" r="1.7" fill="#f5f5f5" opacity="0.80"/><circle cx="906.2" cy="319.7" r="1.7" fill="#f5f5f5" opacity="0.60"/><circle cx="811.2" cy="423.5" r="1.7" fill="#f5f5f5" opacity="0.86"/><circle cx="760.5" cy="476.8" r="1.7" fill="#f5f5f5" opacity="0.80"/><circle cx="769.9" cy="503.0" r="1.7" fill="#f5f5f5" opacity="0.75"/><circle cx="786.3" cy="457.4" r="1.7" fill="#f5f5f5" opacity="0.85"/><circle cx="801.1" cy="521.4" r="1.7" fill="#f5f5f5" opacity="0.72"/><circle cx="890.7" cy="621.7" r="1" fill="#f5f5f5" opacity="0.48"/><circle cx="722.9" cy="500.6" r="1.7" fill="#f5f5f5" opacity="0.72"/><circle cx="658.6" cy="456.7" r="1.7" fill="#f5f5f5" opacity="0.68"/><circle cx="871.8" cy="375.9" r="1.7" fill="#f5f5f5" opacity="0.73"/><circle cx="757.3" cy="575.5" r="1.7" fill="#f5f5f5" opacity="0.60"/><circle cx="749.9" cy="486.8" r="1.7" fill="#f5f5f5" opacity="0.77"/><circle cx="735.8" cy="391.9" r="1.7" fill="#f5f5f5" opacity="0.76"/><circle cx="617.7" cy="512.1" r="1.7" fill="#f5f5f5" opacity="0.58"/><circle cx="812.6" cy="487.1" r="1.7" fill="#f5f5f5" opacity="0.79"/><circle cx="842.9" cy="378.9" r="1.7" fill="#f5f5f5" opacity="0.76"/><circle cx="860.8" cy="468.3" r="1.7" fill="#f5f5f5" opacity="0.79"/><circle cx="477.6" cy="572.5" r="1" fill="#f5f5f5" opacity="0.33"/><circle cx="812.4" cy="408.0" r="1.7" fill="#f5f5f5" opacity="0.83"/><circle cx="714.2" cy="347.0" r="1.7" fill="#f5f5f5" opacity="0.66"/><circle cx="786.9" cy="521.0" r="1.7" fill="#f5f5f5" opacity="0.72"/><circle cx="868.9" cy="383.4" r="1.7" fill="#f5f5f5" opacity="0.74"/><circle cx="648.5" cy="491.1" r="1.7" fill="#f5f5f5" opacity="0.64"/><circle cx="817.1" cy="448.2" r="1.7" fill="#f5f5f5" opacity="0.87"/><circle cx="674.3" cy="530.0" r="1.7" fill="#f5f5f5" opacity="0.62"/><circle cx="798.9" cy="409.8" r="1.7" fill="#f5f5f5" opacity="0.84"/><circle cx="774.7" cy="541.7" r="1.7" fill="#f5f5f5" opacity="0.67"/><circle cx="663.2" cy="307.1" r="1.7" fill="#f5f5f5" opacity="0.55"/><circle cx="925.3" cy="404.7" r="1.7" fill="#f5f5f5" opacity="0.70"/><circle cx="934.0" cy="509.1" r="1.7" fill="#f5f5f5" opacity="0.64"/><circle cx="929.3" cy="452.4" r="1.7" fill="#f5f5f5" opacity="0.70"/><circle cx="706.8" cy="525.0" r="1.7" fill="#f5f5f5" opacity="0.67"/><circle cx="1055.7" cy="332.7" r="1" fill="#f5f5f5" opacity="0.45"/><circle cx="840.0" cy="390.8" r="1.7" fill="#f5f5f5" opacity="0.78"/><circle cx="793.0" cy="450.4" r="1.7" fill="#f5f5f5" opacity="0.87"/><circle cx="869.1" cy="456.0" r="1.7" fill="#f5f5f5" opacity="0.79"/><circle cx="638.7" cy="504.2" r="1.7" fill="#f5f5f5" opacity="0.62"/><circle cx="878.6" cy="512.7" r="1.7" fill="#f5f5f5" opacity="0.70"/><circle cx="980.9" cy="265.4" r="1" fill="#f5f5f5" opacity="0.44"/><circle cx="945.6" cy="512.8" r="1.7" fill="#f5f5f5" opacity="0.63"/><circle cx="851.0" cy="543.5" r="1.7" fill="#f5f5f5" opacity="0.66"/><circle cx="589.9" cy="257.7" r="1" fill="#f5f5f5" opacity="0.40"/><circle cx="842.6" cy="581.3" r="1.7" fill="#f5f5f5" opacity="0.59"/><circle cx="810.4" cy="411.1" r="1.7" fill="#f5f5f5" opacity="0.84"/><circle cx="801.2" cy="259.8" r="1" fill="#f5f5f5" opacity="0.52"/><circle cx="938.5" cy="512.5" r="1.7" fill="#f5f5f5" opacity="0.63"/><circle cx="783.3" cy="540.6" r="1.7" fill="#f5f5f5" opacity="0.68"/><circle cx="686.9" cy="428.1" r="1.7" fill="#f5f5f5" opacity="0.73"/><circle cx="1141.0" cy="593.8" r="1" fill="#f5f5f5" opacity="0.28"/><circle cx="971.7" cy="403.9" r="1.7" fill="#f5f5f5" opacity="0.63"/><circle cx="791.0" cy="473.0" r="1.7" fill="#f5f5f5" opacity="0.82"/><circle cx="671.4" cy="430.2" r="1.7" fill="#f5f5f5" opacity="0.70"/><circle cx="826.4" cy="487.1" r="1.7" fill="#f5f5f5" opacity="0.79"/><circle cx="682.3" cy="536.5" r="1.7" fill="#f5f5f5" opacity="0.62"/><circle cx="749.6" cy="313.8" r="1.7" fill="#f5f5f5" opacity="0.62"/><circle cx="738.6" cy="557.5" r="1.7" fill="#f5f5f5" opacity="0.63"/><circle cx="988.9" cy="540.5" r="1" fill="#f5f5f5" opacity="0.54"/><circle cx="917.0" cy="437.2" r="1.7" fill="#f5f5f5" opacity="0.72"/><circle cx="643.1" cy="313.5" r="1" fill="#f5f5f5" opacity="0.54"/><circle cx="848.0" cy="380.0" r="1.7" fill="#f5f5f5" opacity="0.76"/><circle cx="788.5" cy="381.5" r="1.7" fill="#f5f5f5" opacity="0.78"/><circle cx="684.0" cy="434.4" r="1.7" fill="#f5f5f5" opacity="0.72"/><circle cx="919.6" cy="368.0" r="1.7" fill="#f5f5f5" opacity="0.66"/><circle cx="834.6" cy="589.0" r="1.7" fill="#f5f5f5" opacity="0.57"/><circle cx="783.1" cy="625.6" r="1" fill="#f5f5f5" opacity="0.50"/><circle cx="698.3" cy="382.4" r="1.7" fill="#f5f5f5" opacity="0.70"/><circle cx="904.6" cy="286.9" r="1" fill="#f5f5f5" opacity="0.54"/><circle cx="809.0" cy="481.2" r="1.7" fill="#f5f5f5" opacity="0.81"/><circle cx="747.4" cy="536.9" r="1.7" fill="#f5f5f5" opacity="0.67"/><circle cx="822.0" cy="418.3" r="1.7" fill="#f5f5f5" opacity="0.85"/><circle cx="787.8" cy="312.0" r="1.7" fill="#f5f5f5" opacity="0.63"/><circle cx="724.2" cy="528.6" r="1.7" fill="#f5f5f5" opacity="0.67"/><circle cx="791.9" cy="428.9" r="1.7" fill="#f5f5f5" opacity="0.88"/><circle cx="858.8" cy="483.3" r="1.7" fill="#f5f5f5" opacity="0.77"/><circle cx="856.0" cy="443.3" r="1.7" fill="#f5f5f5" opacity="0.81"/><circle cx="686.0" cy="403.2" r="1.7" fill="#f5f5f5" opacity="0.71"/><circle cx="788.5" cy="343.3" r="1.7" fill="#f5f5f5" opacity="0.70"/><circle cx="717.2" cy="266.2" r="1" fill="#f5f5f5" opacity="0.51"/><circle cx="1050.5" cy="314.9" r="1" fill="#f5f5f5" opacity="0.43"/><circle cx="829.1" cy="420.3" r="1.7" fill="#f5f5f5" opacity="0.84"/><circle cx="748.6" cy="331.0" r="1.7" fill="#f5f5f5" opacity="0.66"/><circle cx="897.1" cy="443.4" r="1.7" fill="#f5f5f5" opacity="0.75"/><circle cx="946.5" cy="379.4" r="1.7" fill="#f5f5f5" opacity="0.64"/><circle cx="658.7" cy="568.2" r="1" fill="#f5f5f5" opacity="0.55"/><circle cx="807.7" cy="469.3" r="1.7" fill="#f5f5f5" opacity="0.83"/><circle cx="932.4" cy="592.9" r="1" fill="#f5f5f5" opacity="0.51"/><circle cx="907.7" cy="439.6" r="1.7" fill="#f5f5f5" opacity="0.74"/><circle cx="1008.5" cy="274.5" r="1" fill="#f5f5f5" opacity="0.43"/><circle cx="934.3" cy="408.8" r="1.7" fill="#f5f5f5" opacity="0.69"/><circle cx="988.1" cy="417.3" r="1.7" fill="#f5f5f5" opacity="0.61"/><circle cx="766.4" cy="558.2" r="1.7" fill="#f5f5f5" opacity="0.64"/><circle cx="756.5" cy="407.7" r="1.7" fill="#f5f5f5" opacity="0.81"/><circle cx="659.7" cy="359.7" r="1.7" fill="#f5f5f5" opacity="0.63"/><circle cx="860.9" cy="294.8" r="1.7" fill="#f5f5f5" opacity="0.58"/><circle cx="678.0" cy="434.8" r="1.7" fill="#f5f5f5" opacity="0.71"/><circle cx="835.3" cy="604.3" r="1" fill="#f5f5f5" opacity="0.54"/><circle cx="799.4" cy="409.4" r="1.7" fill="#f5f5f5" opacity="0.84"/><circle cx="834.7" cy="427.3" r="1.7" fill="#f5f5f5" opacity="0.84"/><circle cx="936.2" cy="616.8" r="1" fill="#f5f5f5" opacity="0.46"/><circle cx="746.1" cy="446.1" r="1.7" fill="#f5f5f5" opacity="0.82"/><circle cx="807.0" cy="567.1" r="1.7" fill="#f5f5f5" opacity="0.62"/><circle cx="822.5" cy="326.5" r="1.7" fill="#f5f5f5" opacity="0.66"/><circle cx="761.9" cy="549.2" r="1.7" fill="#f5f5f5" opacity="0.65"/><circle cx="801.9" cy="424.4" r="1.7" fill="#f5f5f5" opacity="0.87"/>

  <!-- vignette overlay -->
  <rect x="20" y="76" width="1560" height="804" rx="4" fill="url(#vignette)"/>

  <!-- token strip at top -->
  <g font-family="'SF Mono', Menlo, monospace" font-size="14">
    <rect x="430.0" y="102" width="78.2" height="34" rx="4" fill="#141414" opacity="0.45"/><text x="469.1" y="125" text-anchor="middle" fill="#f5f5f5" opacity="0.95">The</text><rect x="512.2" y="102" width="78.2" height="34" rx="4" fill="#141414" opacity="0.50"/><text x="551.3" y="125" text-anchor="middle" fill="#f5f5f5" opacity="0.95">quick</text><rect x="594.4" y="102" width="78.2" height="34" rx="4" fill="#141414" opacity="0.55"/><text x="633.6" y="125" text-anchor="middle" fill="#f5f5f5" opacity="0.95">brown</text><rect x="676.7" y="102" width="78.2" height="34" rx="4" fill="#141414" opacity="0.60"/><text x="715.8" y="125" text-anchor="middle" fill="#f5f5f5" opacity="0.95">fox</text><rect x="758.9" y="102" width="78.2" height="34" rx="4" fill="#141414" opacity="0.65"/><text x="798.0" y="125" text-anchor="middle" fill="#f5f5f5" opacity="0.95">jumps</text><rect x="841.1" y="102" width="78.2" height="34" rx="4" fill="#141414" opacity="0.70"/><text x="880.2" y="125" text-anchor="middle" fill="#f5f5f5" opacity="0.95">over</text><rect x="923.3" y="102" width="78.2" height="34" rx="4" fill="#141414" opacity="0.75"/><text x="962.4" y="125" text-anchor="middle" fill="#f5f5f5" opacity="0.95">the</text><rect x="1005.6" y="102" width="78.2" height="34" rx="4" fill="#141414" opacity="0.80"/><text x="1044.7" y="125" text-anchor="middle" fill="#f5f5f5" opacity="0.95">lazy</text><rect x="1087.8" y="102" width="78.2" height="34" rx="4" fill="#ffffff" opacity="0.95"/><text x="1126.9" y="125" text-anchor="middle" fill="#0a0a0a" opacity="0.95">dog</text>
  </g>

  <!-- LEFT panel: AUDIO + ABLATION -->
  <g>
    <rect x="56" y="176" width="260" height="200" rx="4"
          fill="#141414" stroke="#ffffff" stroke-width="0.4" opacity="0.92"/>
    <text x="74" y="204" font-size="11" font-family="'SF Mono', Menlo, monospace"
          fill="#9aa0a6" letter-spacing="2.5">ABLATION</text>
    <rect x="74" y="212" width="224" height="22" rx="3"
                fill="#ffffff" stroke="#ffffff" stroke-width="0.3" opacity="0.18"/><text x="86" y="228" font-size="12" font-family="'SF Mono', Menlo, monospace"
                fill="#f5f5f5" opacity="1">BASELINE</text><rect x="74" y="240" width="224" height="22" rx="3"
                fill="none" stroke="#ffffff" stroke-width="0.3" opacity="0.5"/><text x="86" y="256" font-size="12" font-family="'SF Mono', Menlo, monospace"
                fill="#f5f5f5" opacity="0.6">NO ATTN</text><rect x="74" y="268" width="224" height="22" rx="3"
                fill="none" stroke="#ffffff" stroke-width="0.3" opacity="0.5"/><text x="86" y="284" font-size="12" font-family="'SF Mono', Menlo, monospace"
                fill="#f5f5f5" opacity="0.6">NO FFN</text><rect x="74" y="296" width="224" height="22" rx="3"
                fill="none" stroke="#ffffff" stroke-width="0.3" opacity="0.5"/><text x="86" y="312" font-size="12" font-family="'SF Mono', Menlo, monospace"
                fill="#f5f5f5" opacity="0.6">NO ROPE</text>
  </g>

  <!-- LEFT panel 2: STORAGE -->
  <g>
    <rect x="56" y="406" width="260" height="140" rx="4"
          fill="#141414" stroke="#ffffff" stroke-width="0.4" opacity="0.92"/>
    <text x="74" y="434" font-size="11" font-family="'SF Mono', Menlo, monospace"
          fill="#9aa0a6" letter-spacing="2.5">WEIGHT CACHE</text>
    <text x="74" y="468" font-size="32" font-family="Georgia, serif" fill="#f5f5f5">1.94 GB</text>
    <text x="74" y="492" font-size="11" font-family="'SF Mono', Menlo, monospace" fill="#9aa0a6">Cache API · q4f16_1 · MLC</text>
    <rect x="74" y="508" width="224" height="4" rx="2" fill="#ffffff" opacity="0.18"/>
    <rect x="74" y="508" width="217.28" height="4" rx="2" fill="#ffffff" opacity="0.8"/>
  </g>

  <!-- RIGHT panel: PER-HEAD ATTENTION -->
  <g>
    <rect x="1284" y="176" width="260" height="230" rx="4"
          fill="#141414" stroke="#ffffff" stroke-width="0.4" opacity="0.92"/>
    <text x="1302" y="204" font-size="11" font-family="'SF Mono', Menlo, monospace"
          fill="#9aa0a6" letter-spacing="2.5">PER-HEAD ATTENTION · L12</text>
    <rect x="1312.0" y="224.0" width="23.5" height="23.5" fill="#f5f5f5" opacity="0.49"/><rect x="1337.5" y="224.0" width="23.5" height="23.5" fill="#f5f5f5" opacity="0.38"/><rect x="1363.0" y="224.0" width="23.5" height="23.5" fill="#f5f5f5" opacity="0.84"/><rect x="1388.5" y="224.0" width="23.5" height="23.5" fill="#f5f5f5" opacity="0.93"/><rect x="1414.0" y="224.0" width="23.5" height="23.5" fill="#f5f5f5" opacity="0.72"/><rect x="1439.5" y="224.0" width="23.5" height="23.5" fill="#f5f5f5" opacity="0.65"/><rect x="1465.0" y="224.0" width="23.5" height="23.5" fill="#f5f5f5" opacity="0.53"/><rect x="1490.5" y="224.0" width="23.5" height="23.5" fill="#f5f5f5" opacity="0.92"/><rect x="1312.0" y="249.5" width="23.5" height="23.5" fill="#f5f5f5" opacity="0.72"/><rect x="1337.5" y="249.5" width="23.5" height="23.5" fill="#f5f5f5" opacity="0.51"/><rect x="1363.0" y="249.5" width="23.5" height="23.5" fill="#f5f5f5" opacity="0.47"/><rect x="1388.5" y="249.5" width="23.5" height="23.5" fill="#f5f5f5" opacity="0.55"/><rect x="1414.0" y="249.5" width="23.5" height="23.5" fill="#f5f5f5" opacity="0.38"/><rect x="1439.5" y="249.5" width="23.5" height="23.5" fill="#f5f5f5" opacity="0.60"/><rect x="1465.0" y="249.5" width="23.5" height="23.5" fill="#f5f5f5" opacity="0.50"/><rect x="1490.5" y="249.5" width="23.5" height="23.5" fill="#f5f5f5" opacity="0.47"/><rect x="1312.0" y="275.0" width="23.5" height="23.5" fill="#f5f5f5" opacity="0.79"/><rect x="1337.5" y="275.0" width="23.5" height="23.5" fill="#f5f5f5" opacity="0.91"/><rect x="1363.0" y="275.0" width="23.5" height="23.5" fill="#f5f5f5" opacity="0.31"/><rect x="1388.5" y="275.0" width="23.5" height="23.5" fill="#f5f5f5" opacity="0.55"/><rect x="1414.0" y="275.0" width="23.5" height="23.5" fill="#f5f5f5" opacity="0.46"/><rect x="1439.5" y="275.0" width="23.5" height="23.5" fill="#f5f5f5" opacity="0.23"/><rect x="1465.0" y="275.0" width="23.5" height="23.5" fill="#f5f5f5" opacity="0.24"/><rect x="1490.5" y="275.0" width="23.5" height="23.5" fill="#f5f5f5" opacity="0.33"/><rect x="1312.0" y="300.5" width="23.5" height="23.5" fill="#f5f5f5" opacity="0.61"/><rect x="1337.5" y="300.5" width="23.5" height="23.5" fill="#f5f5f5" opacity="0.21"/><rect x="1363.0" y="300.5" width="23.5" height="23.5" fill="#f5f5f5" opacity="0.88"/><rect x="1388.5" y="300.5" width="23.5" height="23.5" fill="#f5f5f5" opacity="0.08"/><rect x="1414.0" y="300.5" width="23.5" height="23.5" fill="#f5f5f5" opacity="0.82"/><rect x="1439.5" y="300.5" width="23.5" height="23.5" fill="#f5f5f5" opacity="0.77"/><rect x="1465.0" y="300.5" width="23.5" height="23.5" fill="#f5f5f5" opacity="0.71"/><rect x="1490.5" y="300.5" width="23.5" height="23.5" fill="#f5f5f5" opacity="0.71"/><rect x="1312.0" y="326.0" width="23.5" height="23.5" fill="#f5f5f5" opacity="0.35"/><rect x="1337.5" y="326.0" width="23.5" height="23.5" fill="#f5f5f5" opacity="0.30"/><rect x="1363.0" y="326.0" width="23.5" height="23.5" fill="#f5f5f5" opacity="0.25"/><rect x="1388.5" y="326.0" width="23.5" height="23.5" fill="#f5f5f5" opacity="0.83"/><rect x="1414.0" y="326.0" width="23.5" height="23.5" fill="#f5f5f5" opacity="0.90"/><rect x="1439.5" y="326.0" width="23.5" height="23.5" fill="#f5f5f5" opacity="0.64"/><rect x="1465.0" y="326.0" width="23.5" height="23.5" fill="#f5f5f5" opacity="0.85"/><rect x="1490.5" y="326.0" width="23.5" height="23.5" fill="#f5f5f5" opacity="0.32"/><rect x="1312.0" y="351.5" width="23.5" height="23.5" fill="#f5f5f5" opacity="0.53"/><rect x="1337.5" y="351.5" width="23.5" height="23.5" fill="#f5f5f5" opacity="0.78"/><rect x="1363.0" y="351.5" width="23.5" height="23.5" fill="#f5f5f5" opacity="0.61"/><rect x="1388.5" y="351.5" width="23.5" height="23.5" fill="#f5f5f5" opacity="0.28"/><rect x="1414.0" y="351.5" width="23.5" height="23.5" fill="#f5f5f5" opacity="0.12"/><rect x="1439.5" y="351.5" width="23.5" height="23.5" fill="#f5f5f5" opacity="0.43"/><rect x="1465.0" y="351.5" width="23.5" height="23.5" fill="#f5f5f5" opacity="0.24"/><rect x="1490.5" y="351.5" width="23.5" height="23.5" fill="#f5f5f5" opacity="0.92"/><rect x="1312.0" y="377.0" width="23.5" height="23.5" fill="#f5f5f5" opacity="0.13"/><rect x="1337.5" y="377.0" width="23.5" height="23.5" fill="#f5f5f5" opacity="0.76"/><rect x="1363.0" y="377.0" width="23.5" height="23.5" fill="#f5f5f5" opacity="0.14"/><rect x="1388.5" y="377.0" width="23.5" height="23.5" fill="#f5f5f5" opacity="0.91"/><rect x="1414.0" y="377.0" width="23.5" height="23.5" fill="#f5f5f5" opacity="0.50"/><rect x="1439.5" y="377.0" width="23.5" height="23.5" fill="#f5f5f5" opacity="0.67"/><rect x="1465.0" y="377.0" width="23.5" height="23.5" fill="#f5f5f5" opacity="0.58"/><rect x="1490.5" y="377.0" width="23.5" height="23.5" fill="#f5f5f5" opacity="0.67"/><rect x="1312.0" y="402.5" width="23.5" height="23.5" fill="#f5f5f5" opacity="0.33"/><rect x="1337.5" y="402.5" width="23.5" height="23.5" fill="#f5f5f5" opacity="0.34"/><rect x="1363.0" y="402.5" width="23.5" height="23.5" fill="#f5f5f5" opacity="0.76"/><rect x="1388.5" y="402.5" width="23.5" height="23.5" fill="#f5f5f5" opacity="0.32"/><rect x="1414.0" y="402.5" width="23.5" height="23.5" fill="#f5f5f5" opacity="0.55"/><rect x="1439.5" y="402.5" width="23.5" height="23.5" fill="#f5f5f5" opacity="0.28"/><rect x="1465.0" y="402.5" width="23.5" height="23.5" fill="#f5f5f5" opacity="0.14"/><rect x="1490.5" y="402.5" width="23.5" height="23.5" fill="#f5f5f5" opacity="0.70"/>
  </g>

  <!-- RIGHT panel 2: LOGIT LENS -->
  <g>
    <rect x="1284" y="436" width="260" height="140" rx="4"
          fill="#141414" stroke="#ffffff" stroke-width="0.4" opacity="0.92"/>
    <text x="1302" y="464" font-size="11" font-family="'SF Mono', Menlo, monospace"
          fill="#9aa0a6" letter-spacing="2.5">LOGIT LENS · TOP 5</text>
    <text x="1302" y="488" font-size="12" font-family="'SF Mono', Menlo, monospace" fill="#f5f5f5">dog   </text><rect x="1372" y="479" width="150" height="10" fill="#ffffff" opacity="0.7"/><text x="1530" y="488" font-size="11" font-family="'SF Mono', Menlo, monospace" fill="#9aa0a6" text-anchor="end">42.0%</text><text x="1302" y="506" font-size="12" font-family="'SF Mono', Menlo, monospace" fill="#f5f5f5">cat   </text><rect x="1372" y="497" width="64.28571428571429" height="10" fill="#ffffff" opacity="0.7"/><text x="1530" y="506" font-size="11" font-family="'SF Mono', Menlo, monospace" fill="#9aa0a6" text-anchor="end">18.0%</text><text x="1302" y="524" font-size="12" font-family="'SF Mono', Menlo, monospace" fill="#f5f5f5">fox   </text><rect x="1372" y="515" width="39.285714285714285" height="10" fill="#ffffff" opacity="0.7"/><text x="1530" y="524" font-size="11" font-family="'SF Mono', Menlo, monospace" fill="#9aa0a6" text-anchor="end">11.0%</text><text x="1302" y="542" font-size="12" font-family="'SF Mono', Menlo, monospace" fill="#f5f5f5">bear  </text><rect x="1372" y="533" width="21.42857142857143" height="10" fill="#ffffff" opacity="0.7"/><text x="1530" y="542" font-size="11" font-family="'SF Mono', Menlo, monospace" fill="#9aa0a6" text-anchor="end">6.0%</text><text x="1302" y="560" font-size="12" font-family="'SF Mono', Menlo, monospace" fill="#f5f5f5">owl   </text><rect x="1372" y="551" width="14.285714285714286" height="10" fill="#ffffff" opacity="0.7"/><text x="1530" y="560" font-size="11" font-family="'SF Mono', Menlo, monospace" fill="#9aa0a6" text-anchor="end">4.0%</text>
  </g>

  <!-- bottom prompt input -->
  <g>
    <rect x="220" y="810" width="1160" height="50" rx="6"
          fill="#141414" stroke="#ffffff" stroke-width="0.5" opacity="0.95"/>
    <text x="240" y="842" font-size="15" font-family="'SF Mono', Menlo, monospace" fill="#f5f5f5" opacity="0.95">The quick brown fox jumps over the lazy</text>
    <rect x="650" y="824" width="2" height="22" fill="#ffffff">
      <animate attributeName="opacity" values="0;1;0" dur="1.2s" repeatCount="indefinite"/>
    </rect>
    <text x="1360" y="842" font-size="11" font-family="'SF Mono', Menlo, monospace" fill="#9aa0a6" letter-spacing="2" text-anchor="end">⏎ TO RUN</text>
  </g>

  <!-- HUD: top-right -->
  <g font-family="'SF Mono', Menlo, monospace" font-size="11" fill="#9aa0a6" letter-spacing="1.5">
    <text x="1552" y="104" text-anchor="end">LAYER 16 / 32  ·  HEAD 12 / 32  ·  292 DISPATCHES  ·  18 TOK/S</text>
  </g>
</svg>
